<?xml version="1.0" encoding="UTF-8" standalone="no"?>
<!-- Created with Inkscape (http://www.inkscape.org/) -->

<svg
   width="41.684418mm"
   height="36.756111mm"
   viewBox="0 0 41.684418 36.756111"
   version="1.1"
   id="svg1"
   inkscape:version="1.3.2 (091e20e, 2023-11-25, custom)"
   sodipodi:docname="najjacilogo.svg"
   inkscape:export-filename="primjeri.png"
   inkscape:export-xdpi="100.36415"
   inkscape:export-ydpi="100.36415"
   xmlns:inkscape="http://www.inkscape.org/namespaces/inkscape"
   xmlns:sodipodi="http://sodipodi.sourceforge.net/DTD/sodipodi-0.dtd"
   xmlns:xlink="http://www.w3.org/1999/xlink"
   xmlns="http://www.w3.org/2000/svg"
   xmlns:svg="http://www.w3.org/2000/svg">
  <sodipodi:namedview
     id="namedview1"
     pagecolor="#ffffff"
     bordercolor="#000000"
     borderopacity="0.25"
     inkscape:showpageshadow="2"
     inkscape:pageopacity="0.0"
     inkscape:pagecheckerboard="0"
     inkscape:deskcolor="#d1d1d1"
     inkscape:document-units="mm"
     inkscape:zoom="1.4485269"
     inkscape:cx="-39.6955"
     inkscape:cy="84.568673"
     inkscape:window-width="1360"
     inkscape:window-height="697"
     inkscape:window-x="-8"
     inkscape:window-y="-8"
     inkscape:window-maximized="1"
     inkscape:current-layer="g14" />
  <defs
     id="defs1">
    <linearGradient
       id="linearGradient19"
       inkscape:collect="always">
      <stop
         style="stop-color:#00b83c;stop-opacity:1;"
         offset="0"
         id="stop18" />
      <stop
         style="stop-color:#00c600;stop-opacity:1;"
         offset="1"
         id="stop19" />
    </linearGradient>
    <linearGradient
       id="linearGradient16"
       inkscape:collect="always">
      <stop
         style="stop-color:#00720e;stop-opacity:1;"
         offset="0"
         id="stop16" />
      <stop
         style="stop-color:#002906;stop-opacity:1;"
         offset="1"
         id="stop17" />
    </linearGradient>
    <linearGradient
       inkscape:collect="always"
       xlink:href="#linearGradient19"
       id="linearGradient46"
       gradientUnits="userSpaceOnUse"
       gradientTransform="matrix(0.49611375,0,0,0.49611375,-26.728201,101.66793)"
       x1="122.07364"
       y1="238.38934"
       x2="206.09515"
       y2="238.38934" />
    <linearGradient
       inkscape:collect="always"
       xlink:href="#linearGradient16"
       id="linearGradient47"
       gradientUnits="userSpaceOnUse"
       gradientTransform="matrix(0.49611375,0,0,0.49611375,-26.728202,100.5799)"
       x1="122.07364"
       y1="238.38934"
       x2="206.09515"
       y2="238.38934" />
  </defs>
  <g
     inkscape:groupmode="layer"
     id="g100"
     inkscape:label="Layer 2 copy"
     style="display:none"
     transform="translate(-28.7976,-37.78686)">
    <path
       id="path97"
       style="opacity:1;fill:#000000;fill-opacity:1;stroke-width:0.162558"
       d="m 126.20677,11.055139 c -3.87308,0 -6.99131,3.122098 -6.99131,7.00009 v 13.371793 h 2.04794 l -2.04794,5.582089 V 54.46851 c 0,3.877992 3.11823,7.000089 6.99131,7.000089 3.87305,0 6.9913,-3.122097 6.9913,-7.000089 V 33.596399 h -0.2837 v -2.169377 h 0.2837 V 18.055229 c 0,-3.877992 -3.11825,-7.00009 -6.9913,-7.00009 z m 6.9913,20.371883 v 2.169377 h 0.96532 v 4.483964 c 0,0.962009 0.0292,1.601347 0.0873,1.917712 0.071,0.445495 0.19697,0.800338 0.37775,1.065052 0.18724,0.258257 0.47794,0.47137 0.87179,0.639237 0.11381,0.04664 0.24035,0.07174 0.36225,0.104903 V 28.395166 l -1.69912,0.988053 v 2.043803 z m 2.66444,-3.031856 1.03198,-0.599963 v 3.631819 h 1.85983 v 2.169377 h -1.85983 v 4.144967 c 0,0.839336 0.0163,1.330219 0.0486,1.472261 0.0387,0.135585 0.11969,0.248091 0.24236,0.338481 0.12913,0.09039 0.2838,0.135909 0.46458,0.135909 0.2518,0 0.61673,-0.08716 1.0945,-0.261483 l 0.23255,2.110982 c -0.63273,0.271171 -1.34966,0.406694 -2.15026,0.406694 -0.34889,0 -0.66435,-0.05534 -0.96428,-0.136943 v 3.528467 c 0,3.877992 3.11823,7.00009 6.9913,7.00009 3.87306,0 6.99131,-3.122098 6.99131,-7.00009 V 27.188005 c 0,-3.877994 -3.11825,-7.00009 -6.99131,-7.00009 -3.87307,0 -6.9913,3.122096 -6.9913,7.00009 z m -16.64705,8.613945 v -5.582089 h -0.76998 l -2.14819,6.530351 v 4.410067 c 0,0.965123 -0.19432,1.882651 -0.54415,2.717663 0.19818,-0.167618 0.38334,-0.358041 0.54209,-0.593762 0.21952,-0.316365 0.44892,-0.774661 0.68781,-1.37511 l 0.64906,-1.791622 z m -3.46232,8.075992 c -0.0678,0.05735 -0.13119,0.122192 -0.2036,0.171566 -0.27763,0.20015 -0.6229,0.354812 -1.03612,0.464571 -0.40675,0.10976 -0.86841,0.164848 -1.38492,0.164848 -0.52298,0 -1.03636,-0.05509 -1.53996,-0.164848 l -0.24185,-2.130619 c 0.42613,0.08393 0.8102,0.12609 1.15239,0.12609 0.63273,0 1.10059,-0.187249 1.40404,-0.561722 0.30346,-0.368017 0.53623,-0.839245 0.69764,-1.413868 l -3.91294,-10.314099 h 2.89594 l 2.4598,7.30188 0.25373,-0.771529 v -7.801074 c 0,-3.877992 -3.11822,-7.00009 -6.9913,-7.00009 -2.85537,0 -5.29012,1.703398 -6.37791,4.149101 0.25862,-0.02158 0.52681,-0.03307 0.80616,-0.03307 1.78197,0 3.12194,0.390793 4.01939,1.172022 0.9039,0.781229 1.37849,1.823774 1.42369,3.127974 l -2.86701,0.126091 c -0.12268,-0.729578 -0.387,-1.252531 -0.79375,-1.568897 -0.4003,-0.322822 -1.00421,-0.484725 -1.81126,-0.484725 -0.53652,0 -0.98966,0.07918 -1.37615,0.221175 -0.004,0.09706 -0.0145,0.192358 -0.0145,0.290422 v 2.070158 c 0.46997,0.202828 1.13455,0.410545 2.03966,0.624251 1.39459,0.329278 2.42421,0.67119 3.08922,1.026294 0.67147,0.348648 1.19442,0.829961 1.5689,1.443323 0.38093,0.606905 0.57154,1.358748 0.57154,2.256193 0,0.813511 -0.22605,1.57544 -0.678,2.285648 -0.45195,0.710209 -1.09128,1.239886 -1.91771,1.588534 -0.82642,0.342191 -1.85604,0.513147 -3.08922,0.513147 -0.57633,0 -1.09393,-0.05845 -1.58439,-0.143661 v 0.547254 c 0,3.877992 3.11824,7.000089 6.9913,7.000089 2.90918,0 5.39132,-1.762246 6.44715,-4.282426 z M 102.31469,41.820186 V 39.19244 c -0.16864,-0.08746 -0.32686,-0.187935 -0.46871,-0.308509 -0.51006,-0.439037 -0.84912,-1.126222 -1.01699,-2.062406 l -0.965318,0.09353 v 3.876766 c 0.639928,0.518591 1.461658,0.856483 2.451018,1.028361 z m -2.451018,-1.028361 c -0.03081,-0.02497 -0.06973,-0.04192 -0.09974,-0.0677 -0.962009,-0.83288 -1.536689,-2.043536 -1.723925,-3.631819 l 1.823661,-0.177251 v -2.822566 c -8.49e-4,-7.59e-4 -0.0023,-0.0013 -0.0031,-0.0021 -0.871619,-0.781229 -1.307413,-1.73377 -1.307413,-2.85719 0,-0.723121 0.203543,-1.397892 0.610298,-2.024166 0.193309,-0.296005 0.42919,-0.555373 0.700216,-0.784965 v -5.624463 c 0,-3.877992 -3.117718,-6.999573 -6.990788,-6.999573 -3.873063,0 -6.991304,3.121581 -6.991304,6.999573 v 8.402588 c 1.512073,0.0207 2.759037,0.520052 3.732588,1.512569 0.994292,1.007204 1.491382,2.282518 1.491382,3.825606 0,1.556002 -0.503814,2.847092 -1.511019,3.873666 -0.983962,1.003007 -2.223413,1.507115 -3.712951,1.523938 v 8.690425 c 0,3.877992 3.118241,6.999573 6.991304,6.999573 3.87307,0 6.990788,-3.121581 6.990788,-6.999573 z M 85.88158,41.938009 v -2.219503 c -0.02852,8.98e-4 -0.0543,0.0083 -0.0832,0.0083 -0.710209,0 -1.30739,-0.271046 -1.791622,-0.813387 -0.484233,-0.542341 -0.726571,-1.323926 -0.726571,-2.344043 0,-1.020117 0.242338,-1.801185 0.726571,-2.343526 0.484232,-0.542341 1.081413,-0.813387 1.791622,-0.813387 0.0289,0 0.05468,0.0074 0.0832,0.0083 V 31.20223 c -0.03221,-4.41e-4 -0.06056,-0.0078 -0.09302,-0.0078 -0.968524,0 -1.847857,0.211284 -2.64325,0.623218 v 9.504846 c 0.847,0.413365 1.734467,0.621668 2.662887,0.621668 0.02556,0 0.04797,-0.0059 0.07338,-0.0062 z m -2.736268,-0.615467 c -0.01297,-0.0063 -0.02632,-0.01062 -0.03927,-0.01705 -0.852249,-0.426125 -1.501157,-1.049169 -1.946651,-1.869136 -0.445494,-0.826425 -0.668176,-1.830692 -0.668176,-3.01222 0,-0.903901 0.222682,-1.778852 0.668176,-2.624646 0.445494,-0.845793 1.075263,-1.491338 1.888774,-1.936832 0.03149,-0.01711 0.06539,-0.02851 0.09715,-0.04496 V 27.82311 c 0,-3.877992 -3.118235,-7.00009 -6.991304,-7.00009 -3.873066,0 -6.991305,3.122098 -6.991305,7.00009 v 3.936711 c 0.368335,0.226098 0.720784,0.500937 1.043348,0.868164 v -5.1139 h 2.721281 v 14.1981 H 70.39984 v -1.511019 c -0.353281,0.494594 -0.774044,0.859987 -1.237134,1.144116 v 4.625041 c 0,3.877992 3.118239,7.000089 6.991305,7.000089 3.873069,0 6.991304,-3.122097 6.991304,-7.000089 z m -13.982609,0.02274 v -1.966288 c -0.353439,0.273571 -0.753353,0.415478 -1.203544,0.415478 -0.582876,0 -1.068929,-0.197116 -1.460892,-0.586011 v 2.664437 c 0.223634,0.03824 0.449102,0.07131 0.686263,0.07131 0.581079,0 1.155759,-0.141731 1.723925,-0.425814 0.0909,-0.04596 0.167227,-0.119724 0.254248,-0.173116 z m -2.664436,0.527616 c -0.890504,-0.152267 -1.678873,-0.593265 -2.354895,-1.351855 -0.839337,-0.955553 -1.258838,-2.285955 -1.258838,-3.990454 0,-1.743238 0.409931,-3.066916 1.229899,-3.970817 0.654678,-0.726848 1.453395,-1.150044 2.383834,-1.296562 V 18.689815 c 0,-3.877992 -3.118237,-6.999572 -6.991305,-6.999572 -3.873069,0 -6.991304,3.12158 -6.991304,6.999572 v 12.737207 h 1.526521 v 4.72581 c 0,1.446242 0.04837,2.334125 0.145211,2.663403 0.103303,0.322822 0.287707,0.580937 0.552421,0.77463 0.264714,0.187237 0.600418,0.28112 1.007174,0.28112 0.464863,0 0.881002,-0.125954 1.249019,-0.377755 0.368017,-0.258257 0.619924,-0.574823 0.75551,-0.949296 0.135585,-0.38093 0.203605,-1.307091 0.203605,-2.779158 V 31.427022 H 60.6764 v 10.285161 h -2.527495 v -1.539958 c -0.374473,0.548797 -0.868718,0.98123 -1.48208,1.297595 -0.606905,0.316366 -1.249088,0.47439 -1.927014,0.47439 -0.690839,0 -1.311037,-0.1513 -1.859835,-0.454753 -0.130496,-0.07216 -0.25098,-0.152199 -0.364318,-0.238228 v 13.851868 c 0,3.877992 3.118235,7.000089 6.991304,7.000089 3.873068,0 6.991305,-3.122097 6.991305,-7.000089 z M 52.515658,41.251229 v -9.824207 h -1.19476 v 6.50813 c 0,0.968466 0.122592,1.727033 0.367937,2.27583 0.187005,0.418301 0.463521,0.764484 0.826823,1.040247 z m 13.982609,-9.988021 v 2.60811 c 0.404474,-0.388275 0.881988,-0.594796 1.441772,-0.594796 0.467874,0 0.873038,0.136976 1.222664,0.395841 v -1.912544 c -0.590102,-0.362229 -1.231834,-0.565341 -1.939416,-0.565341 -0.252489,0 -0.490109,0.03174 -0.72502,0.06873 z m 2.664436,2.409155 v 5.706629 c 0.138242,-0.107003 0.270851,-0.229934 0.394292,-0.378789 0.439037,-0.535884 0.658874,-1.333246 0.658874,-2.392102 0,-1.181528 -0.213112,-2.030616 -0.639237,-2.547131 -0.126323,-0.155032 -0.266613,-0.279533 -0.413929,-0.388607 z m -2.664436,0.198955 c -0.06204,0.05955 -0.127134,0.111663 -0.185519,0.18035 -0.432581,0.510059 -0.648539,1.274833 -0.648539,2.294951 0,1.097594 0.1513,1.891594 0.454753,2.382283 0.114156,0.184664 0.241577,0.342909 0.379305,0.479557 z M 85.88158,33.420699 v 6.297807 c 0.672232,-0.02117 1.240271,-0.284849 1.698604,-0.805119 0.484233,-0.542341 0.726571,-1.330133 0.726571,-2.363163 0,-1.007205 -0.242338,-1.782065 -0.726571,-2.324406 -0.458332,-0.520268 -1.026376,-0.783945 -1.698604,-0.805119 z m 13.982092,-4.996594 v 5.668388 c 0.506588,0.452704 1.334468,0.844597 2.451018,1.181323 v -3.047359 c -0.25417,-0.109689 -0.4679,-0.218538 -0.5948,-0.325045 -0.28408,-0.238888 -0.42581,-0.526228 -0.42581,-0.861963 0,-0.368017 0.1513,-0.661564 0.45475,-0.881083 0.1677,-0.12176 0.36684,-0.214054 0.58032,-0.292489 0.0371,-0.911482 0.24855,-1.772777 0.59893,-2.560567 -0.75152,0.06272 -1.41622,0.215976 -1.99264,0.460954 -0.40888,0.175235 -0.76346,0.396664 -1.071768,0.657841 z m 2.451018,6.849711 v 3.918624 c 0.4454,0.231004 0.98109,0.350366 1.61333,0.350366 0.92327,0 1.61718,-0.193974 2.08205,-0.58136 0.47132,-0.393843 0.70745,-0.852138 0.70745,-1.37511 0,-0.335735 -0.10009,-0.619712 -0.30024,-0.852144 -0.1937,-0.238888 -0.53612,-0.445793 -1.02681,-0.620117 -0.33574,-0.116216 -1.10103,-0.322605 -2.29547,-0.619601 -0.28116,-0.0697 -0.52985,-0.145123 -0.78031,-0.220658 z m 57.258,-20.10885 c -3.87307,0 -6.99131,3.122097 -6.99131,7.000089 v 9.261967 h 1.39682 v 1.404049 c 0.89744,-1.091138 1.96637,-1.636593 3.206,-1.636593 0.65856,0 1.22988,0.135523 1.71411,0.406694 0.48423,0.27117 0.88123,0.681102 1.19114,1.229899 0.45195,-0.548797 0.93947,-0.958729 1.46245,-1.229899 0.52297,-0.271171 1.08135,-0.406694 1.67535,-0.406694 0.7554,0 1.39474,0.155179 1.91771,0.465088 0.52297,0.303453 0.91325,0.752179 1.1715,1.346171 0.14251,0.334152 0.21349,0.87614 0.24753,1.524455 V 22.165055 c 0,-3.877992 -3.11824,-7.000089 -6.9913,-7.000089 z m 6.9913,19.365226 v 7.181991 h 0.0336 v -6.575826 c 0,-0.234452 -0.0229,-0.402666 -0.0336,-0.606165 z m 0,7.181991 h -2.68769 v -5.878711 c 0,-1.020118 -0.0939,-1.678594 -0.28112,-1.97559 -0.2518,-0.387387 -0.63923,-0.58136 -1.1622,-0.58136 -0.38093,0 -0.73914,0.116384 -1.07487,0.348816 -0.33574,0.232431 -0.57756,0.57486 -0.72605,1.02681 -0.1485,0.445495 -0.22325,1.152336 -0.22325,2.120801 v 4.939234 h -2.72128 v -5.636866 c 0,-1.000747 -0.0484,-1.646293 -0.14521,-1.936832 -0.0968,-0.29054 -0.24866,-0.506498 -0.45527,-0.64854 -0.20015,-0.142041 -0.47456,-0.213423 -0.8232,-0.213423 -0.41967,0 -0.79702,0.113022 -1.13275,0.338997 -0.33574,0.225976 -0.57807,0.55211 -0.72657,0.978235 -0.14204,0.426125 -0.21291,1.132966 -0.21291,2.120801 v 4.997628 h -1.61024 v 8.281148 c 0,3.877992 3.11824,7.000089 6.99131,7.000089 3.87306,0 6.9913,-3.122097 6.9913,-7.000089 z m -13.98261,0 V 31.427022 h -1.11104 V 41.712183 Z M 42.606185,23.790796 c -3.873069,0 -6.991305,3.122097 -6.991305,7.000089 v 12.211658 c 0,3.877992 3.118236,6.999573 6.991305,6.999573 3.873068,0 6.991304,-3.121581 6.991304,-6.999573 v -1.29036 H 46.75942 l -1.239718,-3.225127 h -5.675106 l -1.172021,3.225127 h -3.040641 l 5.529895,-14.1981 h 3.031339 L 49.597489,41.01145 V 30.790885 c 0,-3.877992 -3.118236,-7.000089 -6.991304,-7.000089 z m 6.991304,17.220654 v 0.700733 h 0.280603 z M 75.610372,27.514083 h 2.721281 v 2.518192 h -2.721281 z m -32.96698,3.312459 -1.917196,5.268412 h 3.873666 z m 84.111658,0.367936 c 1.40751,0 2.45341,0.229407 3.1378,0.687814 0.68438,0.458407 1.15561,1.136022 1.41386,2.033467 l -2.56625,0.474907 c -0.10976,-0.400299 -0.32002,-0.707295 -0.62993,-0.920358 -0.30346,-0.213062 -0.73925,-0.31936 -1.30742,-0.31936 -0.71666,0 -1.22953,0.100091 -1.53944,0.30024 -0.2066,0.142042 -0.31006,0.325929 -0.31006,0.551904 0,0.193694 0.0905,0.358442 0.2713,0.494027 0.24535,0.18078 1.09108,0.435533 2.53732,0.764811 1.4527,0.329279 2.46602,0.733003 3.04064,1.210779 0.56817,0.484233 0.85266,1.159003 0.85266,2.024166 0,0.94264 -0.39415,1.752933 -1.18184,2.430859 -0.78769,0.677926 -1.95282,1.016476 -3.49591,1.016476 -1.40105,0 -2.51161,-0.283978 -3.33158,-0.852145 -0.81351,-0.568166 -1.34603,-1.339665 -1.59784,-2.314587 l 2.73059,-0.416512 c 0.11621,0.529428 0.35234,0.933152 0.70745,1.210779 0.3551,0.27117 0.85219,0.406693 1.49138,0.406693 0.70375,0 1.23291,-0.129315 1.58802,-0.387573 0.23888,-0.18078 0.35863,-0.422601 0.35863,-0.726054 0,-0.206606 -0.0647,-0.377562 -0.19379,-0.513147 -0.13558,-0.129129 -0.43922,-0.248875 -0.91054,-0.358634 -2.19518,-0.484233 -3.58636,-0.926235 -4.1739,-1.326534 -0.81351,-0.555254 -1.2206,-1.326753 -1.2206,-2.314588 0,-0.890988 0.352,-1.639986 1.05575,-2.246891 0.70375,-0.606905 1.79518,-0.910539 3.2737,-0.910539 z m 17.80977,0 c 1.53018,0 2.73747,0.50666 3.622,1.520321 0.88453,1.007204 1.3074,2.553564 1.26866,4.638993 h -6.81767 c 0.0194,0.807055 0.23868,1.436823 0.65835,1.888774 0.41967,0.445494 0.94262,0.668176 1.5689,0.668176 0.42612,0 0.78433,-0.116384 1.07487,-0.348816 0.29054,-0.232431 0.51038,-0.60693 0.65887,-1.123445 l 2.71147,0.455269 c -0.34865,0.994291 -0.90031,1.752859 -1.65572,2.27583 -0.74894,0.516515 -1.68855,0.77463 -2.81843,0.77463 -1.78843,0 -3.11211,-0.58425 -3.97082,-1.752865 -0.67792,-0.936183 -1.01699,-2.117614 -1.01699,-3.544486 0,-1.7045 0.44588,-3.037747 1.33687,-3.999756 0.89099,-0.968466 2.01733,-1.452625 3.37964,-1.452625 z m -68.954448,0.232544 h 2.721281 v 10.285161 h -2.721281 z m 69.119298,1.8495 c -0.594,0 -1.08488,0.216474 -1.47226,0.649056 -0.38739,0.432581 -0.57749,1.020193 -0.57103,1.762683 h 4.06745 c -0.0194,-0.787686 -0.22291,-1.384866 -0.6103,-1.791622 -0.38738,-0.413212 -0.85861,-0.620117 -1.41386,-0.620117 z" />
  </g>
  <g
     inkscape:groupmode="layer"
     id="g14"
     inkscape:label="Layer 2 copy"
     style="display:inline"
     transform="translate(-28.7976,-37.78686)">
    <g
       id="g46"
       transform="translate(-5.0365111,-163.76525)"
       style="display:inline">
      <path
         style="display:inline;fill:#000000;fill-opacity:1;stroke-width:2.69337"
         d="m 55.626491,212.08373 0.339407,-0.55034 -0.23412,-0.48595 -0.232124,-0.0922 -1.44059,0.50628 z"
         id="path42" />
      <path
         style="display:inline;fill:#000000;fill-opacity:1;stroke-width:2.64583"
         d="m 54.303485,229.40919 0.747355,-0.47405 0.576173,-0.0683 0.110794,0.95112 -0.110712,0.12511 -0.195673,0.0802 z"
         id="path43" />
      <path
         id="path44"
         style="display:inline;fill:#000000;fill-opacity:1;stroke:none;stroke-width:1.08351;stroke-linejoin:miter;stroke-dasharray:none;stroke-opacity:1"
         inkscape:transform-center-x="-3.6321661"
         inkscape:transform-center-y="2.9876378e-06"
         d="m 35.001481,203.71676 c -0.600088,-0.01 -1.16737,0.45693 -1.16737,1.15652 v 16.13907 l 21.792985,-8.93072 -20.168795,-8.26461 c -0.01206,-0.003 -0.02571,-0.007 -0.04237,-0.0145 -0.13536,-0.056 -0.275965,-0.0835 -0.414445,-0.0858 z m 20.625615,8.36487 v 17.86144 l 19.167822,-7.85482 c 0.01776,-0.007 0.735317,-0.31546 0.72347,-1.07642 -0.01156,-0.74384 -0.590257,-1.02066 -0.747758,-1.0852 -0.0015,-5e-4 -0.0011,-4e-4 -0.0021,-10e-4 z m 0,17.86144 -21.792985,-8.93072 v 16.13855 c 0,0.87474 0.886467,1.359 1.565279,1.07694 0.02039,-0.008 0.03344,-0.0115 0.04237,-0.0129 z" />
      <path
         id="path45"
         style="display:inline;fill:url(#linearGradient46);stroke:none;stroke-width:1.08351;stroke-linejoin:miter;stroke-dasharray:none;stroke-opacity:1"
         inkscape:transform-center-x="-3.6321665"
         inkscape:transform-center-y="-2.1637772e-06"
         d="m 35.001735,202.6403 c -0.600089,-0.01 -1.167524,0.45718 -1.167524,1.15677 v 16.13899 l 21.792803,-8.93053 -20.168418,-8.26498 c -0.01206,-0.003 -0.02614,-0.007 -0.04281,-0.0143 -0.13536,-0.056 -0.275567,-0.0836 -0.414047,-0.0859 z m 20.625279,8.36523 v 16.77385 1.08746 l 19.167798,-7.85504 c 0.01776,-0.007 0.735335,-0.3153 0.723488,-1.07626 -0.01156,-0.74384 -0.58983,-1.02042 -0.747331,-1.08497 -0.0015,-5e-4 -9.92e-4,-3.8e-4 -0.002,-9.9e-4 z m 0,17.86131 -1.336633,-0.54776 -20.45617,-8.38302 v 16.13873 c 0,0.87474 0.886863,1.35909 1.565675,1.07703 0.02039,-0.008 0.03284,-0.012 0.04177,-0.0134 z"
         sodipodi:nodetypes="csccccccccccsccccccsccc" />
      <path
         id="path46"
         style="display:inline;fill:url(#linearGradient47);stroke:none;stroke-width:1.08351;stroke-linejoin:miter;stroke-dasharray:none;stroke-opacity:1"
         inkscape:transform-center-x="-3.6321662"
         d="m 35.001734,201.55227 c -0.600089,-0.01 -1.167524,0.45717 -1.167524,1.15676 v 16.13899 l 21.792804,-8.93052 -20.168418,-8.26499 c -0.01206,-0.003 -0.02615,-0.007 -0.04282,-0.0143 -0.13536,-0.056 -0.275566,-0.0836 -0.414047,-0.0859 z m 20.62528,8.36523 v 17.86131 l 19.167798,-7.85504 c 0.01776,-0.007 0.735335,-0.3153 0.723487,-1.07626 -0.01156,-0.74384 -0.589834,-1.02043 -0.747335,-1.08497 -0.0015,-5e-4 -9.93e-4,-3.8e-4 -0.002,-9.9e-4 z m 0,17.86131 -21.792804,-8.93079 v 16.13874 c 0,0.87474 0.886863,1.35908 1.565675,1.07703 0.02039,-0.008 0.03284,-0.012 0.04177,-0.0134 z"
         sodipodi:nodetypes="cscccccccccscccccsccc" />
    </g>
  </g>
  <g
     inkscape:groupmode="layer"
     id="g80"
     inkscape:label="Layer 2 copy"
     style="display:none"
     transform="translate(-28.7976,-37.78686)">
    <rect
       style="opacity:1;fill:#000000;fill-opacity:1;stroke-width:0.162661"
       id="rect71"
       width="14"
       height="26.211252"
       x="35.614944"
       y="23.791054"
       ry="7" />
    <rect
       style="fill:#000000;fill-opacity:1;stroke-width:0.244167"
       id="rect72"
       width="14"
       height="50.413284"
       x="50"
       y="11.690037"
       ry="7" />
    <rect
       style="opacity:1;fill:#000000;fill-opacity:1;stroke-width:0.194978"
       id="rect73"
       width="14"
       height="32.147602"
       x="64.385056"
       y="20.822878"
       ry="7" />
  </g>
</svg>
